<svg width="218" height="201" viewBox="0 0 218 201" fill="none" xmlns="http://www.w3.org/2000/svg">
<path d="M195.227 89.5001C198.799 95.6881 198.799 103.312 195.227 109.5L161.024 168.741C157.451 174.929 150.849 178.741 143.703 178.741L75.2973 178.741C68.152 178.741 61.5494 174.929 57.9768 168.741L23.7738 109.5C20.2011 103.312 20.2011 95.6881 23.7738 89.5001L57.9768 30.2588C61.5494 24.0708 68.152 20.2588 75.2973 20.2588L143.703 20.2588C150.849 20.2588 157.451 24.0708 161.024 30.2588L195.227 89.5001Z" fill="#83CD29"/>
<path d="M182.227 89.5001C185.799 95.6881 185.799 103.312 182.227 109.5L154.524 157.483C150.951 163.671 144.349 167.483 137.203 167.483L81.7973 167.483C74.6519 167.483 68.0494 163.671 64.4767 157.483L36.7738 109.5C33.2011 103.312 33.2011 95.6881 36.7738 89.5001L64.4768 41.5171C68.0494 35.3291 74.652 31.5171 81.7973 31.5171L137.203 31.5171C144.349 31.5171 150.951 35.3291 154.524 41.5171L182.227 89.5001Z" fill="black"/>
<path d="M165.284 99.8957C165.284 92.4741 156.046 85.4408 141.882 81.0792C145.151 66.5558 143.698 55.001 137.298 51.3016C135.822 50.4339 134.097 50.0228 132.213 50.0228V55.1152C133.257 55.1152 134.097 55.3207 134.801 55.7089C137.888 57.4901 139.227 64.2722 138.183 72.9954C137.933 75.1419 137.525 77.4027 137.025 79.709C132.576 78.6129 127.719 77.768 122.612 77.22C119.548 72.9954 116.37 69.159 113.17 65.8022C120.569 58.883 127.515 55.0923 132.236 55.0923V50C125.994 50 117.823 54.4758 109.561 62.2399C101.299 54.5214 93.128 50.0913 86.8862 50.0913V55.1837C91.5846 55.1837 98.5527 58.9515 105.952 65.825C102.774 69.1819 99.5968 72.9954 96.578 77.22C91.4484 77.768 86.5911 78.6129 82.1423 79.7319C81.6203 77.4483 81.2344 75.2333 80.9621 73.1096C79.8953 64.3864 81.2117 57.6042 84.2759 55.8002C84.9569 55.3892 85.8421 55.2065 86.8862 55.2065V50.1142C84.9796 50.1142 83.2545 50.5252 81.7565 51.393C75.3785 55.0923 73.9485 66.6243 77.2397 81.102C63.1217 85.4864 53.9292 92.497 53.9292 99.8957C53.9292 107.317 63.1671 114.351 77.3304 118.712C74.062 133.236 75.5146 144.79 81.9154 148.49C83.3907 149.357 85.1157 149.769 87.0223 149.769C93.2642 149.769 101.435 145.293 109.697 137.529C117.959 145.247 126.13 149.677 132.372 149.677C134.279 149.677 136.004 149.266 137.502 148.398C143.88 144.699 145.31 133.167 142.019 118.689C156.091 114.328 165.284 107.294 165.284 99.8957ZM135.731 84.6644C134.892 87.6101 133.848 90.6473 132.667 93.6844C131.737 91.8576 130.761 90.0307 129.694 88.2039C128.65 86.377 127.538 84.5959 126.425 82.8604C129.648 83.3399 132.758 83.9336 135.731 84.6644ZM125.336 108.984C123.566 112.067 121.75 114.99 119.866 117.707C116.484 118.004 113.057 118.164 109.606 118.164C106.179 118.164 102.752 118.004 99.3925 117.73C97.5086 115.013 95.6701 112.113 93.8997 109.053C92.1747 106.061 90.6086 103.024 89.1786 99.9642C90.5859 96.9042 92.1747 93.8443 93.877 90.8528C95.6474 87.77 97.4632 84.847 99.3471 82.1296C102.729 81.8328 106.156 81.6729 109.606 81.6729C113.034 81.6729 116.461 81.8328 119.82 82.1068C121.704 84.8242 123.543 87.7243 125.313 90.7843C127.038 93.7757 128.604 96.8129 130.034 99.8728C128.604 102.933 127.038 105.993 125.336 108.984ZM132.667 106.016C133.893 109.076 134.937 112.136 135.8 115.104C132.826 115.835 129.694 116.451 126.448 116.931C127.56 115.173 128.672 113.369 129.717 111.519C130.761 109.692 131.737 107.842 132.667 106.016ZM109.652 130.381C107.541 128.189 105.43 125.746 103.342 123.074C105.385 123.165 107.473 123.234 109.584 123.234C111.717 123.234 113.828 123.188 115.894 123.074C113.851 125.746 111.74 128.189 109.652 130.381ZM92.7648 116.931C89.5418 116.451 86.4322 115.858 83.4588 115.127C84.2986 112.181 85.3427 109.144 86.523 106.107C87.4536 107.934 88.4296 109.761 89.4964 111.587C90.5632 113.414 91.6526 115.195 92.7648 116.931ZM109.538 69.4102C111.649 71.6024 113.76 74.0458 115.848 76.7176C113.806 76.6263 111.717 76.5577 109.606 76.5577C107.473 76.5577 105.362 76.6034 103.297 76.7176C105.339 74.0458 107.45 71.6024 109.538 69.4102ZM92.7421 82.8604C91.63 84.6187 90.5178 86.4227 89.4737 88.2724C88.4296 90.0992 87.4536 91.9261 86.523 93.7529C85.2973 90.6929 84.2532 87.633 83.3907 84.6644C86.3641 83.9565 89.4964 83.3399 92.7421 82.8604ZM72.2008 111.45C64.1658 108.002 58.9681 103.481 58.9681 99.8957C58.9681 96.3105 64.1658 91.7662 72.2008 88.3409C74.1528 87.496 76.2864 86.7424 78.488 86.0345C79.7818 90.5103 81.4841 95.1687 83.595 99.9413C81.5068 104.691 79.8272 109.327 78.5561 113.78C76.3091 113.072 74.1755 112.295 72.2008 111.45ZM84.4121 144.082C81.3252 142.301 79.9861 135.519 81.0302 126.796C81.2798 124.649 81.6884 122.389 82.1877 120.082C86.6365 121.178 91.4938 122.023 96.6007 122.571C99.6649 126.796 102.843 130.632 106.043 133.989C98.6435 140.908 91.698 144.699 86.9769 144.699C85.9555 144.676 85.093 144.471 84.4121 144.082ZM138.251 126.682C139.318 135.405 138.001 142.187 134.937 143.991C134.256 144.402 133.371 144.585 132.327 144.585C127.628 144.585 120.66 140.817 113.261 133.943C116.438 130.587 119.616 126.773 122.635 122.549C127.765 122 132.622 121.156 137.071 120.037C137.593 122.343 138.001 124.558 138.251 126.682ZM146.989 111.45C145.037 112.295 142.904 113.049 140.702 113.757C139.408 109.281 137.706 104.623 135.595 99.85C137.683 95.1002 139.363 90.4646 140.634 86.0117C142.881 86.7196 145.015 87.496 147.012 88.3409C155.047 91.7891 160.245 96.3105 160.245 99.8957C160.222 103.481 155.024 108.025 146.989 111.45Z" fill="#83CD29"/>
<path d="M110.25 106.643C113.983 106.643 117.009 103.617 117.009 99.8842C117.009 96.1516 113.983 93.1257 110.25 93.1257C106.518 93.1257 103.492 96.1516 103.492 99.8842C103.492 103.617 106.518 106.643 110.25 106.643Z" fill="#83CD29"/>
<g filter="url(#filter0_f)">
<path d="M87 37C87 44.732 80.732 51 73 51C65.268 51 59 44.732 59 37C59 29.268 65.268 23 73 23C80.732 23 87 29.268 87 37Z" fill="#83CD29" fill-opacity="0.5"/>
</g>
<g filter="url(#filter1_f)">
<path d="M157 37C157 44.732 150.732 51 143 51C135.268 51 129 44.732 129 37C129 29.268 135.268 23 143 23C150.732 23 157 29.268 157 37Z" fill="#83CD29" fill-opacity="0.5"/>
</g>
<g filter="url(#filter2_f)">
<path d="M195 99C195 106.732 188.732 113 181 113C173.268 113 167 106.732 167 99C167 91.268 173.268 85 181 85C188.732 85 195 91.268 195 99Z" fill="#83CD29" fill-opacity="0.5"/>
</g>
<g filter="url(#filter3_f)">
<path d="M51 99C51 106.732 44.732 113 37 113C29.268 113 23 106.732 23 99C23 91.268 29.268 85 37 85C44.732 85 51 91.268 51 99Z" fill="#83CD29" fill-opacity="0.5"/>
</g>
<g filter="url(#filter4_f)">
<path d="M87 164C87 171.732 80.732 178 73 178C65.268 178 59 171.732 59 164C59 156.268 65.268 150 73 150C80.732 150 87 156.268 87 164Z" fill="#83CD29" fill-opacity="0.5"/>
</g>
<g filter="url(#filter5_f)">
<path d="M159 159C159 166.732 152.732 173 145 173C137.268 173 131 166.732 131 159C131 151.268 137.268 145 145 145C152.732 145 159 151.268 159 159Z" fill="#83CD29" fill-opacity="0.5"/>
</g>
<defs>
<filter id="filter0_f" x="36" y="0" width="74" height="74" filterUnits="userSpaceOnUse" color-interpolation-filters="sRGB">
<feFlood flood-opacity="0" result="BackgroundImageFix"/>
<feBlend mode="normal" in="SourceGraphic" in2="BackgroundImageFix" result="shape"/>
<feGaussianBlur stdDeviation="11.5" result="effect1_foregroundBlur"/>
</filter>
<filter id="filter1_f" x="106" y="0" width="74" height="74" filterUnits="userSpaceOnUse" color-interpolation-filters="sRGB">
<feFlood flood-opacity="0" result="BackgroundImageFix"/>
<feBlend mode="normal" in="SourceGraphic" in2="BackgroundImageFix" result="shape"/>
<feGaussianBlur stdDeviation="11.5" result="effect1_foregroundBlur"/>
</filter>
<filter id="filter2_f" x="144" y="62" width="74" height="74" filterUnits="userSpaceOnUse" color-interpolation-filters="sRGB">
<feFlood flood-opacity="0" result="BackgroundImageFix"/>
<feBlend mode="normal" in="SourceGraphic" in2="BackgroundImageFix" result="shape"/>
<feGaussianBlur stdDeviation="11.5" result="effect1_foregroundBlur"/>
</filter>
<filter id="filter3_f" x="0" y="62" width="74" height="74" filterUnits="userSpaceOnUse" color-interpolation-filters="sRGB">
<feFlood flood-opacity="0" result="BackgroundImageFix"/>
<feBlend mode="normal" in="SourceGraphic" in2="BackgroundImageFix" result="shape"/>
<feGaussianBlur stdDeviation="11.5" result="effect1_foregroundBlur"/>
</filter>
<filter id="filter4_f" x="36" y="127" width="74" height="74" filterUnits="userSpaceOnUse" color-interpolation-filters="sRGB">
<feFlood flood-opacity="0" result="BackgroundImageFix"/>
<feBlend mode="normal" in="SourceGraphic" in2="BackgroundImageFix" result="shape"/>
<feGaussianBlur stdDeviation="11.5" result="effect1_foregroundBlur"/>
</filter>
<filter id="filter5_f" x="108" y="122" width="74" height="74" filterUnits="userSpaceOnUse" color-interpolation-filters="sRGB">
<feFlood flood-opacity="0" result="BackgroundImageFix"/>
<feBlend mode="normal" in="SourceGraphic" in2="BackgroundImageFix" result="shape"/>
<feGaussianBlur stdDeviation="11.5" result="effect1_foregroundBlur"/>
</filter>
</defs>
</svg>
