<svg width="299" height="276" viewBox="0 0 299 276" fill="none" xmlns="http://www.w3.org/2000/svg">
<path d="M38.8595 200.403C20.628 215.049 4.69338 228.044 0.665904 231.901C0.52698 232.013 0.46208 232.165 0.525699 232.234C0.585424 232.3 0.733435 232.274 0.869761 232.174C0.89443 232.156 18.9558 218.901 40.3409 203.199C42.8415 207.788 45.6265 212.277 48.701 216.643C42.2559 222.179 37.3664 226.565 35.7278 228.465C35.6344 228.544 35.6201 228.685 35.6993 228.779C35.7733 228.867 35.9018 228.884 35.9966 228.818C36.0083 228.81 41.8496 224.733 50.2823 218.841C50.9263 219.719 51.582 220.591 52.2493 221.459C54.0203 223.758 55.8497 225.987 57.7349 228.144C34.0517 247.097 5.37763 270.258 0.136191 275.454C0.0141458 275.554 -0.0364999 275.695 0.0284175 275.766C0.0881416 275.834 0.224463 275.819 0.343912 275.731C0.375072 275.708 33.8387 251.356 60.8951 231.638C108.737 282.767 188.516 290.11 245.132 246.51C299.752 204.446 314.038 129.423 281.561 70.9241C282.54 69.3258 283.498 67.7094 284.437 66.0787C286.792 62.0239 288.641 58.5197 290.657 54.2858C292.46 50.5024 296.178 42.1748 295.677 37.219C295.59 36.353 295.259 35.3117 294.689 34.6418C294.002 33.8368 293.217 33.3226 292.202 33.0188C285.297 30.7324 268.961 34.7132 261.783 36.6672C259.955 37.1645 258.153 37.6786 256.373 38.2135C208.114 -8.13629 131.925 -13.492 77.301 28.5746C23.8415 69.7439 9.01949 142.484 38.8595 200.403V200.403Z" fill="black"/>
<path d="M63.2878 223.703C78.5771 211.488 90.5778 201.983 90.6258 201.947C91.7034 201.045 93.0239 200.426 94.3586 200.049C96.2801 199.503 98.0303 199.531 98.4042 200.019C98.7794 200.508 98.3627 202.217 97.3448 203.939C96.8072 204.847 95.8893 206.111 94.6091 207.008C93.5536 207.818 81.6776 216.488 66.6842 227.418C115.136 278.434 195.706 281.893 248.378 234.577C293.488 194.057 303.756 129.211 277.166 77.7402C272.606 84.4553 267.551 90.8068 261.755 96.6858C254.223 104.324 246.946 110.122 238.273 116.726C245.846 144.851 237.694 176.118 214.544 196.913C195.075 214.402 169.379 220.553 145.547 215.8C145.329 215.966 145.108 216.134 144.888 216.301C144.288 216.756 143.523 216.803 142.871 216.426C142.334 216.116 142.012 215.574 141.963 214.999C126.99 211.292 112.931 203.214 101.847 190.875C100.344 189.2 98.9235 187.479 97.5862 185.717C86.7191 193.365 69.5484 205.378 56.0962 214.78C58.341 217.83 60.7391 220.807 63.2878 223.703Z" fill="white"/>
<path d="M44.5111 195.868C58.9098 184.33 74.0966 172.26 85.6052 163.138C82.6735 154.464 81.2856 145.408 81.4193 136.384C81.1051 136.272 80.8221 136.07 80.5975 135.788C79.9704 134.996 80.1041 133.845 80.8961 133.219C81.1155 133.045 81.3362 132.872 81.557 132.699C82.7852 112.505 91.6451 92.7635 107.884 78.1752C134.21 54.5258 171.927 51.6084 201.017 68.3493C205.284 65.019 209.268 62.0536 213.896 58.7545C219.124 55.0204 223.743 52.1524 229.408 49.1207C235.698 45.7658 242.039 43.0484 248.636 40.7295C199.709 -3.55979 124.223 -4.55953 74.0512 40.5101C29.3724 80.6434 18.8713 144.639 44.5111 195.868V195.868Z" fill="white"/>
<path d="M87.6227 168.468C75.783 177.172 60.5118 188.387 46.1118 198.961C48.4995 203.428 51.1702 207.791 54.1213 212.025C66.8984 201.212 83.207 187.859 93.3679 179.586C91.1386 176 89.2248 172.281 87.6227 168.468Z" fill="#FFF4E5"/>
<path fill-rule="evenodd" clip-rule="evenodd" d="M278.258 149.046C278.719 148.032 279.128 146.619 279.483 144.808C279.839 142.997 280.02 141.036 280.027 138.928C279.983 135.579 279.517 132.825 278.631 130.664C277.745 128.504 276.574 126.905 275.118 125.867C273.662 124.828 272.057 124.317 270.303 124.335C268.207 124.334 266.421 125.063 264.946 126.521C263.47 127.977 262.243 130.246 261.265 133.326C260.6 135.489 260.032 137.067 259.56 138.06C259.087 139.052 258.489 139.544 257.765 139.536C257.084 139.535 256.54 139.166 256.133 138.428C255.727 137.691 255.515 136.616 255.497 135.204C255.509 133.489 255.666 132.003 255.966 130.746C256.267 129.488 256.572 128.487 256.882 127.741L250.379 125.845C249.95 126.962 249.598 128.282 249.323 129.807C249.049 131.332 248.913 133.111 248.917 135.146C249.006 139.521 249.937 142.908 251.708 145.303C253.48 147.699 255.73 148.906 258.454 148.922C260.678 148.867 262.52 147.966 263.977 146.219C265.434 144.472 266.605 142.12 267.489 139.165C268.037 137.236 268.564 135.843 269.069 134.988C269.574 134.133 270.186 133.711 270.904 133.722C271.674 133.715 272.277 134.099 272.716 134.873C273.154 135.649 273.382 136.826 273.4 138.41C273.391 140.171 273.207 141.834 272.844 143.398C272.482 144.961 272.06 146.282 271.576 147.355L278.258 149.046V149.046Z" fill="black"/>
<path fill-rule="evenodd" clip-rule="evenodd" d="M267.642 187.809C268.416 187.007 269.272 185.812 270.213 184.223C271.153 182.634 271.978 180.847 272.688 178.861C273.764 175.69 274.245 172.937 274.13 170.606C274.016 168.274 273.446 166.376 272.421 164.91C271.395 163.446 270.053 162.429 268.393 161.858C266.418 161.159 264.491 161.249 262.613 162.131C260.735 163.011 258.822 164.741 256.872 167.318C255.522 169.135 254.46 170.432 253.685 171.21C252.909 171.988 252.181 172.252 251.501 172.002C250.859 171.773 250.47 171.245 250.332 170.413C250.196 169.583 250.354 168.498 250.807 167.162C251.391 165.549 252.035 164.201 252.739 163.116C253.441 162.032 254.064 161.188 254.605 160.588L249.108 156.63C248.332 157.54 247.558 158.668 246.79 160.014C246.022 161.36 245.301 162.991 244.625 164.91C243.247 169.064 242.996 172.567 243.866 175.417C244.736 178.267 246.453 180.154 249.018 181.08C251.133 181.771 253.169 181.536 255.125 180.376C257.082 179.216 258.97 177.389 260.789 174.898C261.95 173.262 262.911 172.126 263.674 171.488C264.435 170.85 265.152 170.657 265.825 170.908C266.552 171.159 266.994 171.721 267.148 172.598C267.303 173.474 267.125 174.662 266.612 176.159C266.018 177.816 265.288 179.321 264.424 180.676C263.561 182.029 262.721 183.132 261.908 183.983L267.642 187.809V187.809Z" fill="black"/>
<path fill-rule="evenodd" clip-rule="evenodd" d="M250.702 195.943L245.598 191.862L237.88 201.516L234.096 198.491L242.293 188.239L237.119 184.102L223.154 201.568L246.732 220.42L261.145 202.396L255.97 198.259L247.327 209.069L242.984 205.596L250.702 195.943Z" fill="black"/>
<path fill-rule="evenodd" clip-rule="evenodd" d="M211.152 246.048L218.976 241.333L213.125 231.625L214.395 230.86C215.577 230.098 216.65 229.774 217.613 229.888C218.577 230.003 219.697 230.697 220.971 231.97C222.364 233.327 223.543 234.396 224.505 235.174C225.468 235.953 226.178 236.468 226.635 236.716L234.678 231.868C234.27 231.628 233.686 231.172 232.927 230.504C232.167 229.834 231.334 229.085 230.428 228.253C229.523 227.421 228.651 226.641 227.81 225.912C226.774 225.01 225.718 224.344 224.645 223.911C223.571 223.478 222.441 223.353 221.253 223.537L221.184 223.422C222.15 222.302 222.83 220.891 223.221 219.188C223.613 217.485 223.352 215.803 222.442 214.138C221.688 212.893 220.787 211.953 219.738 211.32C218.69 210.686 217.504 210.338 216.181 210.275C214.627 210.205 212.933 210.51 211.1 211.189C209.267 211.869 207.227 212.891 204.985 214.255C203.007 215.453 201.24 216.597 199.682 217.685C198.124 218.774 196.83 219.737 195.798 220.575L211.152 246.048V246.048ZM206.467 220.574C206.634 220.419 206.919 220.198 207.328 219.91C207.736 219.623 208.308 219.257 209.045 218.81C210.368 218.022 211.534 217.68 212.546 217.786C213.557 217.891 214.357 218.426 214.944 219.389C215.521 220.367 215.577 221.385 215.112 222.441C214.647 223.498 213.67 224.484 212.181 225.399L210.123 226.638L206.467 220.574Z" fill="black"/>
<path fill-rule="evenodd" clip-rule="evenodd" d="M168.899 256.926L177.901 255.371L176.154 245.261C176.433 245.217 176.761 245.176 177.137 245.137C177.514 245.099 177.93 245.042 178.385 244.968C180.69 244.573 182.759 243.957 184.592 243.123C186.424 242.288 187.934 241.224 189.124 239.932C190.058 238.875 190.699 237.672 191.045 236.322C191.391 234.974 191.436 233.543 191.177 232.03C190.894 230.495 190.299 229.172 189.39 228.059C188.481 226.946 187.374 226.109 186.068 225.549C184.753 224.959 183.171 224.619 181.32 224.53C179.47 224.44 177.325 224.606 174.887 225.028C172.331 225.475 170.147 225.92 168.337 226.364C166.527 226.808 165.024 227.226 163.834 227.62L168.899 256.926V256.926ZM173.789 231.576C174.009 231.491 174.339 231.392 174.781 231.28C175.223 231.167 175.772 231.054 176.427 230.939C178.165 230.655 179.515 230.775 180.476 231.296C181.437 231.818 182.014 232.64 182.205 233.761C182.41 235.059 182.068 236.161 181.182 237.066C180.295 237.971 178.962 238.585 177.182 238.906C176.709 238.987 176.307 239.048 175.975 239.087C175.644 239.126 175.352 239.155 175.103 239.175L173.789 231.576V231.576Z" fill="black"/>
<path fill-rule="evenodd" clip-rule="evenodd" d="M151.945 257.264L145.286 240.13L157.391 227.565L147.087 225.459L144.067 229.778C143.562 230.501 143.077 231.208 142.611 231.899C142.145 232.589 141.632 233.37 141.07 234.241L140.97 234.221C140.773 233.301 140.576 232.413 140.38 231.558C140.183 230.701 139.965 229.797 139.722 228.846L138.382 223.68L128.027 221.562L134.194 238.047L121.629 251.068L131.883 253.166L135.13 248.755C135.721 247.926 136.29 247.141 136.836 246.401C137.384 245.66 137.895 244.898 138.373 244.115L138.473 244.135C138.719 245.066 138.962 245.984 139.206 246.891C139.45 247.798 139.723 248.768 140.025 249.801L141.489 255.129L151.945 257.264V257.264Z" fill="black"/>
<path d="M225.562 137.815C225.562 129.203 214.842 121.042 198.408 115.981C202.2 99.1283 200.515 85.7205 193.087 81.4278C191.375 80.4209 189.374 79.944 187.188 79.944V85.853C188.399 85.853 189.374 86.0914 190.19 86.5419C193.772 88.6087 195.326 96.4785 194.115 106.601C193.825 109.091 193.351 111.715 192.771 114.391C187.609 113.119 181.973 112.139 176.047 111.503C172.491 106.601 168.804 102.149 165.09 98.2539C173.677 90.2251 181.736 85.8265 187.214 85.8265V79.9175C179.971 79.9175 170.49 85.111 160.903 94.1203C151.316 85.164 141.834 80.0235 134.591 80.0235V85.9325C140.043 85.9325 148.129 90.3046 156.715 98.2804C153.028 102.176 149.341 106.601 145.838 111.503C139.885 112.139 134.249 113.119 129.087 114.418C128.481 111.768 128.033 109.197 127.717 106.733C126.479 96.611 128.007 88.7412 131.563 86.6479C132.353 86.1709 133.38 85.959 134.591 85.959V80.05C132.379 80.05 130.377 80.5269 128.639 81.5338C121.238 85.8265 119.579 99.2078 123.398 116.007C107.016 121.095 96.3491 129.23 96.3491 137.815C96.3491 146.427 107.069 154.588 123.503 159.649C119.711 176.502 121.396 189.909 128.823 194.202C130.535 195.209 132.537 195.686 134.749 195.686C141.992 195.686 151.474 190.492 161.061 181.483C170.648 190.439 180.129 195.58 187.372 195.58C189.584 195.58 191.586 195.103 193.324 194.096C200.725 189.803 202.385 176.422 198.566 159.623C214.895 154.562 225.562 146.4 225.562 137.815ZM191.27 120.141C190.296 123.559 189.084 127.083 187.714 130.608C186.635 128.488 185.502 126.368 184.264 124.248C183.053 122.128 181.762 120.062 180.472 118.048C184.212 118.604 187.82 119.293 191.27 120.141ZM179.207 148.361C177.153 151.938 175.046 155.33 172.86 158.483C168.936 158.828 164.959 159.013 160.955 159.013C156.978 159.013 153.001 158.828 149.103 158.51C146.917 155.356 144.784 151.991 142.73 148.441C140.728 144.969 138.911 141.445 137.252 137.894C138.884 134.344 140.728 130.793 142.703 127.322C144.758 123.745 146.865 120.353 149.051 117.2C152.975 116.855 156.952 116.67 160.955 116.67C164.932 116.67 168.909 116.855 172.807 117.173C174.993 120.326 177.127 123.692 179.181 127.242C181.183 130.714 183 134.238 184.659 137.788C183 141.339 181.183 144.89 179.207 148.361ZM187.714 144.916C189.137 148.467 190.348 152.018 191.349 155.462C187.899 156.31 184.264 157.026 180.498 157.582C181.789 155.542 183.079 153.449 184.291 151.302C185.502 149.182 186.635 147.036 187.714 144.916ZM161.008 173.189C158.559 170.646 156.109 167.81 153.686 164.71C156.057 164.816 158.48 164.896 160.929 164.896C163.405 164.896 165.854 164.843 168.251 164.71C165.881 167.81 163.431 170.646 161.008 173.189ZM141.413 157.582C137.673 157.026 134.065 156.337 130.614 155.489C131.589 152.071 132.8 148.547 134.17 145.022C135.25 147.142 136.382 149.262 137.62 151.382C138.858 153.502 140.122 155.568 141.413 157.582ZM160.876 102.441C163.326 104.984 165.775 107.82 168.198 110.92C165.828 110.814 163.405 110.734 160.955 110.734C158.48 110.734 156.03 110.787 153.634 110.92C156.004 107.82 158.453 104.984 160.876 102.441ZM141.387 118.048C140.096 120.088 138.805 122.181 137.594 124.328C136.382 126.447 135.25 128.567 134.17 130.687C132.748 127.136 131.536 123.586 130.535 120.141C133.986 119.32 137.62 118.604 141.387 118.048ZM117.551 151.223C108.227 147.222 102.196 141.975 102.196 137.815C102.196 133.655 108.227 128.382 117.551 124.407C119.816 123.427 122.292 122.552 124.846 121.731C126.348 126.924 128.323 132.33 130.772 137.868C128.349 143.38 126.4 148.759 124.925 153.926C122.318 153.104 119.842 152.203 117.551 151.223ZM131.721 189.088C128.139 187.021 126.585 179.151 127.796 169.029C128.086 166.539 128.56 163.915 129.14 161.239C134.302 162.511 139.938 163.491 145.864 164.127C149.42 169.029 153.107 173.481 156.82 177.376C148.234 185.405 140.175 189.803 134.697 189.803C133.512 189.777 132.511 189.539 131.721 189.088ZM194.194 168.897C195.431 179.019 193.904 186.889 190.348 188.982C189.558 189.459 188.531 189.671 187.319 189.671C181.868 189.671 173.782 185.299 165.196 177.323C168.883 173.428 172.57 169.003 176.073 164.101C182.026 163.465 187.662 162.484 192.824 161.186C193.43 163.862 193.904 166.433 194.194 168.897ZM204.334 151.223C202.069 152.203 199.593 153.078 197.038 153.899C195.537 148.706 193.561 143.3 191.112 137.762C193.535 132.25 195.484 126.871 196.959 121.704C199.566 122.526 202.042 123.427 204.36 124.407C213.683 128.408 219.715 133.655 219.715 137.815C219.688 141.975 213.657 147.248 204.334 151.223Z" fill="#227C99"/>
<path d="M161.702 145.644C166.033 145.644 169.545 142.133 169.545 137.802C169.545 133.471 166.033 129.959 161.702 129.959C157.371 129.959 153.86 133.471 153.86 137.802C153.86 142.133 157.371 145.644 161.702 145.644Z" fill="#227C99"/>
<path fill-rule="evenodd" clip-rule="evenodd" d="M291.053 37.5445C290.854 37.3405 290.64 37.2115 290.367 37.1301C289.77 36.9403 289.252 36.8241 288.63 36.7389C282.194 35.9423 269.889 38.682 262.241 40.7852C256.88 42.2493 252.405 43.6722 247.183 45.5727C241.297 47.7404 236.45 49.9147 230.914 52.8687C225.453 55.8189 220.996 58.5987 215.942 62.2021C210.35 66.2149 205.712 69.7215 200.325 74.008L200.312 74.0171C187.351 84.1458 177.254 93.8136 166.565 106.332C166.218 106.739 165.768 106.953 165.234 106.967C161.12 107.072 157.652 107.35 153.574 107.903C131.667 110.855 109.455 118.519 91.1211 131.107C92.5284 130.868 93.7209 130.693 95.1385 130.518C99.8327 129.913 103.855 129.826 108.571 130.231C112.874 130.579 116.467 131.496 120.413 133.252C124.788 135.209 128.022 137.977 130.634 142.005L131.332 143.076L125.536 150.788C123.009 154.115 120.967 156.995 118.666 160.483C118.257 161.118 117.746 162.383 118.268 163.142L125.958 173.164C126.473 173.791 127.835 173.692 128.611 173.441C132.16 172.243 135.123 171.132 138.585 169.7L148.611 165.599L149.462 166.542C152.074 169.429 153.702 172.415 154.72 176.177C155.817 180.322 156.067 184.015 155.536 188.271C154.694 195.273 152.717 201.354 149.888 207.636C157.219 201.27 162.837 195.217 168.647 187.429C175.831 177.814 181.566 168.011 186.413 157.149C188.748 151.933 190.431 147.397 192.059 141.918C192.21 141.406 192.531 141.027 193.01 140.794C207.8 133.62 219.691 126.293 232.759 116.303C237.287 112.864 241.069 109.907 245.502 106.344C250.365 102.412 254.286 98.8593 258.677 94.4024C267.23 85.677 274.489 75.3817 280.585 64.7133C282.856 60.7574 284.649 57.345 286.618 53.2302C287.837 50.6764 291.657 42.2687 291.26 38.2133C291.239 37.9667 291.176 37.7614 291.053 37.5445V37.5445Z" fill="#7CDFFF"/>
<path d="M65.7756 123.038L65.2361 127.632L77.6631 129.091L76.6665 137.577L41.4648 133.443L43.0917 119.59C43.5819 115.415 44.892 112.26 47.0219 110.125C49.1519 107.989 51.9092 107.12 55.294 107.517C57.7439 107.805 59.7161 108.543 61.2106 109.732C62.7069 110.904 63.8307 112.605 64.5821 114.834L79.6371 109.151L79.9997 109.193L78.9322 118.284L65.7756 123.038ZM58.6842 126.862L59.3145 121.495C59.5037 119.883 59.2266 118.625 58.4831 117.721C57.7254 116.798 56.589 116.248 55.0739 116.07C53.5588 115.892 52.3259 116.164 51.3751 116.886C50.4082 117.606 49.8311 118.763 49.6437 120.359L49.0134 125.726L58.6842 126.862Z" fill="black"/>
<path d="M81.7892 73.7715L74.9803 85.3561L82.2626 89.6363L90.305 75.9531L95.9714 79.2835L83.5994 100.333L53.043 82.3733L65.4396 61.2818L71.127 64.6246L63.0599 78.3498L69.5028 82.1366L76.3117 70.5521L81.7892 73.7715Z" fill="black"/>
<path d="M117.349 56.2597L107.703 62.8983L109.773 69.5119L102.253 74.6876L92.8662 38.1211L99.4835 33.5666L130.367 55.3376L122.807 60.5409L117.349 56.2597ZM105.648 56.3048L111.924 51.9849L101.806 44.0252L105.648 56.3048Z" fill="black"/>
<path d="M162.187 37.4922C162.656 39.9166 162.522 42.1946 161.785 44.3261C161.043 46.4417 159.722 48.2635 157.82 49.7913C155.935 51.3153 153.619 52.4087 150.874 53.0717C146.347 54.1653 142.426 53.5514 139.11 51.2301C135.795 48.9089 133.487 45.0586 132.188 39.6793L131.777 37.9755C130.961 34.5997 130.832 31.5087 131.39 28.7028C131.96 25.8772 133.183 23.5115 135.06 21.6056C136.933 19.684 139.321 18.3726 142.224 17.6716C146.404 16.6619 150.031 16.9545 153.104 18.5496C156.174 20.1289 158.349 22.8091 159.629 26.5902L151.347 28.5905C150.778 26.5077 149.885 25.1288 148.67 24.4539C147.456 23.779 145.831 23.6873 143.796 24.1788C141.729 24.6779 140.401 25.8167 139.813 27.5951C139.224 29.3735 139.315 31.9642 140.087 35.3673L140.676 37.8045C141.563 41.4801 142.655 43.9962 143.951 45.3527C145.263 46.7054 147.047 47.1093 149.303 46.5645C151.212 46.1035 152.562 45.3014 153.355 44.1584C154.147 43.0153 154.339 41.4582 153.929 39.4868L162.187 37.4922Z" fill="black"/>
<path d="M205.166 32.3496L194.931 29.4493L187.066 57.2031L178.845 54.8736L186.71 27.1198L176.662 24.2726L178.461 17.9255L206.964 26.0026L205.166 32.3496Z" fill="black"/>
</svg>
